<svg width="65" height="55" viewBox="0 0 65 55" fill="none" xmlns="http://www.w3.org/2000/svg">
<path d="M63.9488 27.0119C63.2376 22.6834 61.5356 18.7025 59.2526 14.9763C56.1818 9.96007 52.2068 6.051 47.1554 3.44375C45.8195 2.75145 44.4052 2.15194 42.9154 1.64705C39.0779 0.344332 35.1311 0.0695965 31.1215 0.00409667C26.1766 -0.0777781 21.5003 1.06756 17.2931 3.44284C17.1228 3.53927 16.9516 3.63752 16.7813 3.7385C12.5067 6.27843 8.98518 9.37876 6.28872 13.0577C3.33545 17.0886 1.36661 21.8146 0.470523 27.2638C-0.236148 31.565 -0.175134 35.8316 0.846625 40.0736C1.70811 43.6461 3.25532 46.9356 5.14038 50.0669C5.50373 50.6682 5.88894 51.2595 6.28963 51.8408C6.7313 52.4858 7.19209 53.1163 7.6629 53.7376C8.21749 54.4727 8.82035 54.5654 9.31574 54.1897C9.80295 53.8177 9.79293 53.2818 9.28114 52.4749C9.252 52.4322 9.21921 52.3903 9.19281 52.3475C8.32586 50.9557 7.4152 49.5884 6.59925 48.1674C6.49453 47.9845 6.39162 47.8017 6.29054 47.617C2.85189 41.3545 1.74818 34.6508 2.88923 27.5759C3.46295 24.018 4.55391 20.6484 6.29054 17.5462C6.82692 16.5856 7.42704 15.6495 8.09273 14.7416C12.3 9.00486 17.518 5.16948 23.6577 3.44284C25.8733 2.82059 28.2083 2.47126 30.6579 2.40758C32.512 2.51037 33.8188 2.5595 35.1238 2.65593C36.8358 2.78329 38.4841 3.0462 40.0668 3.44193C45.5627 4.81378 50.2753 7.78038 54.152 12.2116C58.6816 17.3897 61.3435 23.5167 61.8552 30.446C62.2969 36.4475 61.1604 42.1387 58.1106 47.3787C57.0278 49.239 55.844 51.0394 54.7148 52.8734C54.458 53.2918 54.2157 53.7048 54.7439 54.157C55.2703 54.6091 55.7511 54.5309 56.1727 54.1033C56.6171 53.6494 57.0397 53.1526 57.373 52.6123C58.9102 50.1096 60.5257 47.6416 61.8971 45.048C63.3952 42.2124 63.9643 39.0857 64.2175 35.8944C64.4561 32.9196 64.4315 29.9466 63.9507 27.01L63.9488 27.0119Z" fill="#414141"/>
<path d="M55.0287 49.9394L46.2918 48.4629C46.4056 48.0499 46.5741 47.484 46.5413 47.4822C46.6342 46.991 46.7116 46.5816 46.7872 46.1722C47.1214 44.3664 48.145 42.9036 49.1194 41.4089C49.3316 41.086 49.47 40.643 49.4573 40.2609C49.4172 39.111 49.2596 37.9666 49.195 36.8158C49.0793 34.7416 48.8171 32.7138 48.033 30.757C47.432 29.2514 47.0559 27.6585 46.4821 26.1384C46.2235 25.4543 45.8583 24.7174 45.3247 24.2453C43.1983 22.364 42.0736 19.9023 41.122 17.3368C40.9016 16.7382 40.6512 16.4444 40.0165 16.3498C38.1669 16.0751 36.341 15.7157 34.904 14.3475C34.7401 14.1901 34.3622 14.161 34.1072 14.2065C33.3659 14.3475 32.6429 14.5886 31.9007 14.736C29.8644 15.139 28.085 16.1533 26.2209 16.993C25.078 17.507 24.3003 18.1665 23.9097 19.3355C23.5754 20.3326 22.8925 20.9939 21.9235 21.4351C20.7806 21.9582 19.6797 22.5732 18.5741 23.1754C18.3637 23.2891 18.1097 23.4966 18.0614 23.7049C17.6534 25.4852 16.7182 26.9899 15.6718 28.4445C15.1528 29.1668 14.6546 29.8828 14.7976 30.8753C14.8777 31.432 14.8586 32.0361 14.7302 32.5837C14.335 34.284 13.8879 35.9715 13.4171 37.6536C13.2595 38.214 13.2823 38.6361 13.581 39.1883C14.3459 40.6093 15.2056 42.0512 15.558 43.5923C15.8103 44.6885 15.9323 45.771 16.5752 46.7262C16.689 46.8945 16.741 47.1038 16.8712 47.4167L17.372 48.6376L9.67334 49.9385H55.0278L55.0287 49.9394ZM34.9896 30.9881C34.1573 31.6959 33.3331 32.4127 32.509 33.1268C32.2312 33.3679 31.9517 33.6099 31.673 33.8492C31.4499 34.042 31.2277 34.2358 31.0028 34.4241C30.7797 34.6151 30.5556 34.8062 30.3307 34.9954C30.1313 35.1637 29.9318 35.3293 29.7315 35.4976C29.3909 35.7787 29.0485 36.0598 28.7061 36.3354C28.4475 36.5428 28.187 36.7493 27.9266 36.9522C27.6661 37.156 27.4029 37.357 27.1388 37.5572C25.9049 38.4896 24.2685 38.9072 22.785 39.4821C22.2805 39.6777 22.0492 39.9015 21.8206 40.4201C21.3207 41.5536 20.6085 42.5925 19.9966 43.6778C19.5449 44.4792 19.116 45.2962 18.677 46.1085C18.3993 45.7119 18.0068 45.1952 17.6726 44.6457C17.5842 44.5011 17.6115 44.2091 17.7017 44.0471C18.6898 42.2695 19.7297 40.5229 20.6859 38.728C20.9992 38.1403 21.3097 37.76 21.9955 37.5481C23.0901 37.2097 24.1555 36.7357 25.1746 36.2044C25.5989 35.9815 26.026 35.7596 26.4504 35.5367C27.1498 35.1673 27.8501 34.798 28.5476 34.4259C30.7123 33.2742 32.8623 32.1171 34.9915 30.9781V30.9881H34.9896ZM43.5553 25.7563C43.6545 25.5298 44.0571 25.4333 44.3202 25.276C44.4004 25.3578 44.4823 25.4415 44.5616 25.5234C43.7401 27.1773 42.9187 28.8321 42.0964 30.4859C41.968 30.4204 41.8405 30.3558 41.7121 30.2931C42.3195 28.7775 42.9033 27.2537 43.5553 25.7563ZM41.357 35.574C41.3132 36.5756 41.3105 37.8392 41.1675 39.0855C41.1293 39.4257 40.7195 39.7905 40.3917 40.0152C39.6413 40.5229 38.7333 40.8385 38.0868 41.4426C37.4921 41.9993 37.1561 42.8299 36.7417 43.4849C36.7773 42.1413 37.2736 40.8404 38.1141 39.6959C39.1941 38.2304 40.3625 36.8303 41.356 35.5731L41.357 35.574ZM15.4032 38.4523C15.4032 37.9656 15.3467 37.6836 15.4114 37.4344C15.9596 35.3102 16.5688 33.2105 16.5397 30.969C16.5297 30.2767 16.9896 29.5498 17.3256 28.8866C17.6662 28.2125 18.2399 27.6394 18.504 26.9453C19.2963 24.863 20.9792 23.7394 22.8478 22.8834C24.0016 22.3567 24.8212 21.588 25.3357 20.4963C25.8257 19.4592 26.597 18.7787 27.6133 18.3257C29.2589 17.5907 30.9017 16.8501 32.5491 16.1233C32.7631 16.0287 33.0026 15.9641 33.2339 15.9513C33.7193 15.9286 34.0034 16.197 33.6965 16.6209C32.5992 18.1447 31.8624 19.8877 30.0803 20.9512C28.2544 22.0428 26.6954 23.5812 25.0261 24.9312C24.8704 25.0576 24.7575 25.2359 24.6664 25.4606C27.1079 24.9166 29.2743 23.7749 31.429 22.5614C33.5954 21.3396 35.8274 20.2398 38.0312 19.0853C38.0759 19.1354 38.1196 19.1863 38.1633 19.2382C37.9739 19.4065 37.7935 19.5848 37.5959 19.7421C35.5661 21.3624 33.5062 22.948 31.5209 24.6182C31.0774 24.9921 30.8024 25.6326 30.5939 26.203C30.0284 27.744 29.5475 29.316 29.0157 30.8698C28.9292 31.12 28.7471 31.3338 28.5194 31.533C28.9456 29.629 29.1978 27.7395 28.9101 25.6808C28.1961 26.1802 27.6033 26.6405 26.9667 27.0308C25.1363 28.1561 23.3123 29.2896 21.4381 30.3367C20.8325 30.6742 20.5448 31.0354 20.3681 31.7141C19.6787 34.3422 18.8883 36.9431 18.1297 39.5522C18.1106 39.6177 18.0414 39.6677 17.9949 39.7241C17.9421 39.7196 17.892 39.7159 17.8392 39.7114C18.0641 37.4089 18.2873 35.1055 18.5095 32.803C17.4941 34.6361 16.9122 36.6529 15.3996 38.4523H15.4032Z" fill="#414141"/>
</svg>
