<svg width="226" height="55" viewBox="0 0 226 55" fill="none" xmlns="http://www.w3.org/2000/svg">
<path d="M63.9488 27.0119C63.2376 22.6834 61.5356 18.7025 59.2526 14.9763C56.1818 9.96007 52.2068 6.051 47.1554 3.44375C45.8195 2.75145 44.4052 2.15194 42.9154 1.64705C39.0779 0.344332 35.1311 0.0695965 31.1215 0.00409667C26.1766 -0.0777781 21.5003 1.06756 17.2931 3.44284C17.1228 3.53927 16.9516 3.63752 16.7813 3.7385C12.5067 6.27843 8.98518 9.37876 6.28872 13.0577C3.33545 17.0886 1.36661 21.8146 0.470523 27.2638C-0.236148 31.565 -0.175134 35.8316 0.846625 40.0736C1.70811 43.6461 3.25532 46.9356 5.14038 50.0669C5.50373 50.6682 5.88894 51.2595 6.28963 51.8408C6.7313 52.4858 7.19209 53.1163 7.6629 53.7376C8.21749 54.4727 8.82035 54.5654 9.31574 54.1897C9.80295 53.8177 9.79293 53.2818 9.28114 52.4749C9.252 52.4322 9.21921 52.3903 9.19281 52.3475C8.32586 50.9557 7.4152 49.5884 6.59925 48.1674C6.49453 47.9845 6.39162 47.8017 6.29054 47.617C2.85189 41.3545 1.74818 34.6508 2.88923 27.5759C3.46295 24.018 4.55391 20.6484 6.29054 17.5462C6.82692 16.5856 7.42704 15.6495 8.09273 14.7416C12.3 9.00486 17.518 5.16948 23.6577 3.44284C25.8733 2.82059 28.2083 2.47126 30.6579 2.40758C32.512 2.51037 33.8188 2.5595 35.1238 2.65593C36.8358 2.78329 38.4841 3.0462 40.0668 3.44193C45.5627 4.81378 50.2753 7.78038 54.152 12.2116C58.6816 17.3897 61.3435 23.5167 61.8552 30.446C62.2969 36.4475 61.1604 42.1387 58.1106 47.3787C57.0278 49.239 55.844 51.0394 54.7148 52.8734C54.458 53.2918 54.2157 53.7048 54.7439 54.157C55.2703 54.6091 55.7511 54.5309 56.1727 54.1033C56.6171 53.6494 57.0397 53.1526 57.373 52.6123C58.9102 50.1096 60.5257 47.6416 61.8971 45.048C63.3952 42.2124 63.9643 39.0857 64.2175 35.8944C64.4561 32.9196 64.4315 29.9466 63.9507 27.01L63.9488 27.0119Z" fill="#414141"/>
<path d="M55.0287 49.9394L46.2918 48.4629C46.4056 48.0499 46.5741 47.484 46.5413 47.4822C46.6342 46.991 46.7116 46.5816 46.7872 46.1722C47.1214 44.3664 48.145 42.9036 49.1194 41.4089C49.3316 41.086 49.47 40.643 49.4573 40.2609C49.4172 39.111 49.2596 37.9666 49.195 36.8158C49.0793 34.7416 48.8171 32.7138 48.033 30.757C47.432 29.2514 47.0559 27.6585 46.4821 26.1384C46.2235 25.4543 45.8583 24.7174 45.3247 24.2453C43.1983 22.364 42.0736 19.9023 41.122 17.3368C40.9016 16.7382 40.6512 16.4444 40.0165 16.3498C38.1669 16.0751 36.341 15.7157 34.904 14.3475C34.7401 14.1901 34.3622 14.161 34.1072 14.2065C33.3659 14.3475 32.6429 14.5886 31.9007 14.736C29.8644 15.139 28.085 16.1533 26.2209 16.993C25.078 17.507 24.3003 18.1665 23.9097 19.3355C23.5754 20.3326 22.8925 20.9939 21.9235 21.4351C20.7806 21.9582 19.6797 22.5732 18.5741 23.1754C18.3637 23.2891 18.1097 23.4966 18.0614 23.7049C17.6534 25.4852 16.7182 26.9899 15.6718 28.4445C15.1528 29.1668 14.6546 29.8828 14.7976 30.8753C14.8777 31.432 14.8586 32.0361 14.7302 32.5837C14.335 34.284 13.8879 35.9715 13.4171 37.6536C13.2595 38.214 13.2823 38.6361 13.581 39.1883C14.3459 40.6093 15.2056 42.0512 15.558 43.5923C15.8103 44.6885 15.9323 45.771 16.5752 46.7262C16.689 46.8945 16.741 47.1038 16.8712 47.4167L17.372 48.6376L9.67334 49.9385H55.0278L55.0287 49.9394ZM34.9896 30.9881C34.1573 31.6959 33.3331 32.4127 32.509 33.1268C32.2312 33.3679 31.9517 33.6099 31.673 33.8492C31.4499 34.042 31.2277 34.2358 31.0028 34.4241C30.7797 34.6151 30.5556 34.8062 30.3307 34.9954C30.1313 35.1637 29.9318 35.3293 29.7315 35.4976C29.3909 35.7787 29.0485 36.0598 28.7061 36.3354C28.4475 36.5428 28.187 36.7493 27.9266 36.9522C27.6661 37.156 27.4029 37.357 27.1388 37.5572C25.9049 38.4896 24.2685 38.9072 22.785 39.4821C22.2805 39.6777 22.0492 39.9015 21.8206 40.4201C21.3207 41.5536 20.6085 42.5925 19.9966 43.6778C19.5449 44.4792 19.116 45.2962 18.677 46.1085C18.3993 45.7119 18.0068 45.1952 17.6726 44.6457C17.5842 44.5011 17.6115 44.2091 17.7017 44.0471C18.6898 42.2695 19.7297 40.5229 20.6859 38.728C20.9992 38.1403 21.3097 37.76 21.9955 37.5481C23.0901 37.2097 24.1555 36.7357 25.1746 36.2044C25.5989 35.9815 26.026 35.7596 26.4504 35.5367C27.1498 35.1673 27.8501 34.798 28.5476 34.4259C30.7123 33.2742 32.8623 32.1171 34.9915 30.9781V30.9881H34.9896ZM43.5553 25.7563C43.6545 25.5298 44.0571 25.4333 44.3202 25.276C44.4004 25.3578 44.4823 25.4415 44.5616 25.5234C43.7401 27.1773 42.9187 28.8321 42.0964 30.4859C41.968 30.4204 41.8405 30.3558 41.7121 30.2931C42.3195 28.7775 42.9033 27.2537 43.5553 25.7563ZM41.357 35.574C41.3132 36.5756 41.3105 37.8392 41.1675 39.0855C41.1293 39.4257 40.7195 39.7905 40.3917 40.0152C39.6413 40.5229 38.7333 40.8385 38.0868 41.4426C37.4921 41.9993 37.1561 42.8299 36.7417 43.4849C36.7773 42.1413 37.2736 40.8404 38.1141 39.6959C39.1941 38.2304 40.3625 36.8303 41.356 35.5731L41.357 35.574ZM15.4032 38.4523C15.4032 37.9656 15.3467 37.6836 15.4114 37.4344C15.9596 35.3102 16.5688 33.2105 16.5397 30.969C16.5297 30.2767 16.9896 29.5498 17.3256 28.8866C17.6662 28.2125 18.2399 27.6394 18.504 26.9453C19.2963 24.863 20.9792 23.7394 22.8478 22.8834C24.0016 22.3567 24.8212 21.588 25.3357 20.4963C25.8257 19.4592 26.597 18.7787 27.6133 18.3257C29.2589 17.5907 30.9017 16.8501 32.5491 16.1233C32.7631 16.0287 33.0026 15.9641 33.2339 15.9513C33.7193 15.9286 34.0034 16.197 33.6965 16.6209C32.5992 18.1447 31.8624 19.8877 30.0803 20.9512C28.2544 22.0428 26.6954 23.5812 25.0261 24.9312C24.8704 25.0576 24.7575 25.2359 24.6664 25.4606C27.1079 24.9166 29.2743 23.7749 31.429 22.5614C33.5954 21.3396 35.8274 20.2398 38.0312 19.0853C38.0759 19.1354 38.1196 19.1863 38.1633 19.2382C37.9739 19.4065 37.7935 19.5848 37.5959 19.7421C35.5661 21.3624 33.5062 22.948 31.5209 24.6182C31.0774 24.9921 30.8024 25.6326 30.5939 26.203C30.0284 27.744 29.5475 29.316 29.0157 30.8698C28.9292 31.12 28.7471 31.3338 28.5194 31.533C28.9456 29.629 29.1978 27.7395 28.9101 25.6808C28.1961 26.1802 27.6033 26.6405 26.9667 27.0308C25.1363 28.1561 23.3123 29.2896 21.4381 30.3367C20.8325 30.6742 20.5448 31.0354 20.3681 31.7141C19.6787 34.3422 18.8883 36.9431 18.1297 39.5522C18.1106 39.6177 18.0414 39.6677 17.9949 39.7241C17.9421 39.7196 17.892 39.7159 17.8392 39.7114C18.0641 37.4089 18.2873 35.1055 18.5095 32.803C17.4941 34.6361 16.9122 36.6529 15.3996 38.4523H15.4032Z" fill="#414141"/>
<path d="M77.4902 27.231V9.77641H85.0243C86.3198 9.77641 87.4533 10.0122 88.4249 10.4838C89.3965 10.9554 90.1522 11.6344 90.6919 12.5207C91.2317 13.4071 91.5016 14.4696 91.5016 15.7082C91.5016 16.9582 91.2232 18.0122 90.6664 18.8702C90.1152 19.7281 89.3397 20.3758 88.3397 20.8133C87.3453 21.2508 86.1834 21.4696 84.8539 21.4696H80.3539V17.7878H83.8993C84.4561 17.7878 84.9306 17.7196 85.3226 17.5832C85.7203 17.4412 86.0243 17.2168 86.2346 16.9099C86.4505 16.6031 86.5584 16.2025 86.5584 15.7082C86.5584 15.2082 86.4505 14.802 86.2346 14.4895C86.0243 14.1713 85.7203 13.9383 85.3226 13.7906C84.9306 13.6372 84.4561 13.5605 83.8993 13.5605H82.2289V27.231H77.4902ZM87.7175 19.2196L92.0811 27.231H86.9334L82.6721 19.2196H87.7175ZM110.431 18.5037C110.431 20.4469 110.053 22.0861 109.297 23.4213C108.541 24.7508 107.521 25.7594 106.237 26.4469C104.953 27.1287 103.521 27.4696 101.942 27.4696C100.351 27.4696 98.9135 27.1258 97.6294 26.4383C96.351 25.7452 95.334 24.7338 94.5783 23.4043C93.8283 22.069 93.4533 20.4355 93.4533 18.5037C93.4533 16.5605 93.8283 14.9241 94.5783 13.5946C95.334 12.2594 96.351 11.2508 97.6294 10.569C98.9135 9.88152 100.351 9.53777 101.942 9.53777C103.521 9.53777 104.953 9.88152 106.237 10.569C107.521 11.2508 108.541 12.2594 109.297 13.5946C110.053 14.9241 110.431 16.5605 110.431 18.5037ZM105.556 18.5037C105.556 17.4582 105.416 16.5775 105.138 15.8616C104.865 15.14 104.459 14.5946 103.919 14.2253C103.385 13.8503 102.726 13.6628 101.942 13.6628C101.158 13.6628 100.496 13.8503 99.9561 14.2253C99.4221 14.5946 99.0158 15.14 98.7374 15.8616C98.4647 16.5775 98.3283 17.4582 98.3283 18.5037C98.3283 19.5491 98.4647 20.4327 98.7374 21.1543C99.0158 21.8702 99.4221 22.4156 99.9561 22.7906C100.496 23.1599 101.158 23.3446 101.942 23.3446C102.726 23.3446 103.385 23.1599 103.919 22.7906C104.459 22.4156 104.865 21.8702 105.138 21.1543C105.416 20.4327 105.556 19.5491 105.556 18.5037ZM128.919 16.3219H124.112C124.078 15.9241 123.987 15.5633 123.839 15.2395C123.697 14.9156 123.498 14.6372 123.242 14.4043C122.992 14.1656 122.688 13.9838 122.33 13.8588C121.972 13.7281 121.566 13.6628 121.112 13.6628C120.316 13.6628 119.643 13.856 119.092 14.2423C118.546 14.6287 118.132 15.1827 117.847 15.9043C117.569 16.6258 117.43 17.4923 117.43 18.5037C117.43 19.5719 117.572 20.4668 117.856 21.1883C118.146 21.9043 118.563 22.444 119.109 22.8077C119.654 23.1656 120.311 23.3446 121.078 23.3446C121.515 23.3446 121.907 23.2906 122.254 23.1827C122.6 23.069 122.901 22.9071 123.157 22.6969C123.413 22.4866 123.62 22.2338 123.779 21.9383C123.944 21.6372 124.055 21.2991 124.112 20.9241L128.919 20.9582C128.862 21.6969 128.654 22.4497 128.296 23.2168C127.938 23.9781 127.43 24.6827 126.771 25.3304C126.117 25.9724 125.308 26.4895 124.342 26.8815C123.376 27.2736 122.254 27.4696 120.975 27.4696C119.373 27.4696 117.936 27.1258 116.663 26.4383C115.396 25.7508 114.393 24.7395 113.654 23.4043C112.921 22.069 112.555 20.4355 112.555 18.5037C112.555 16.5605 112.93 14.9241 113.68 13.5946C114.43 12.2594 115.441 11.2508 116.714 10.569C117.987 9.88152 119.407 9.53777 120.975 9.53777C122.078 9.53777 123.092 9.68834 124.018 9.98948C124.944 10.2906 125.757 10.731 126.455 11.3105C127.154 11.8844 127.717 12.5918 128.143 13.4327C128.569 14.2736 128.828 15.2366 128.919 16.3219ZM131.068 27.231V9.77641H135.807V16.8332H136.046L141.296 9.77641H146.818L140.921 17.5491L146.955 27.231H141.296L137.375 20.6855L135.807 22.731V27.231H131.068ZM162.415 15.231C162.369 14.6628 162.156 14.2196 161.776 13.9014C161.401 13.5832 160.83 13.4241 160.063 13.4241C159.574 13.4241 159.173 13.4838 158.861 13.6031C158.554 13.7168 158.327 13.873 158.179 14.0719C158.031 14.2707 157.955 14.498 157.949 14.7537C157.938 14.9639 157.975 15.1543 158.06 15.3247C158.151 15.4895 158.293 15.64 158.486 15.7764C158.679 15.9071 158.926 16.0264 159.227 16.1344C159.529 16.2423 159.887 16.3389 160.301 16.4241L161.733 16.731C162.699 16.9355 163.526 17.2054 164.213 17.5406C164.901 17.8758 165.463 18.2707 165.901 18.7253C166.338 19.1741 166.659 19.6798 166.864 20.2423C167.074 20.8048 167.182 21.4185 167.188 22.0832C167.182 23.231 166.895 24.2025 166.327 24.998C165.759 25.7935 164.946 26.3986 163.889 26.8133C162.838 27.2281 161.574 27.4355 160.097 27.4355C158.58 27.4355 157.256 27.2111 156.125 26.7622C155 26.3133 154.125 25.623 153.5 24.6912C152.881 23.7537 152.568 22.5548 152.563 21.0946H157.063C157.091 21.6287 157.225 22.0775 157.463 22.4412C157.702 22.8048 158.037 23.0804 158.469 23.2679C158.906 23.4554 159.426 23.5491 160.029 23.5491C160.534 23.5491 160.958 23.4866 161.298 23.3616C161.639 23.2366 161.898 23.0633 162.074 22.8418C162.25 22.6202 162.341 22.3673 162.347 22.0832C162.341 21.8162 162.253 21.5832 162.083 21.3844C161.918 21.1798 161.645 20.998 161.264 20.8389C160.884 20.6741 160.369 20.5207 159.722 20.3787L157.983 20.0037C156.438 19.6685 155.219 19.1088 154.327 18.3247C153.441 17.5349 153 16.4582 153.006 15.0946C153 13.9866 153.296 13.0179 153.892 12.1883C154.494 11.3531 155.327 10.7025 156.389 10.2366C157.458 9.77073 158.682 9.53777 160.063 9.53777C161.472 9.53777 162.691 9.77357 163.719 10.2452C164.747 10.7168 165.54 11.3815 166.097 12.2395C166.659 13.0918 166.943 14.0889 166.949 15.231H162.415ZM185.899 18.5037C185.899 20.4469 185.521 22.0861 184.766 23.4213C184.01 24.7508 182.99 25.7594 181.706 26.4469C180.422 27.1287 178.99 27.4696 177.411 27.4696C175.82 27.4696 174.382 27.1258 173.098 26.4383C171.82 25.7452 170.803 24.7338 170.047 23.4043C169.297 22.069 168.922 20.4355 168.922 18.5037C168.922 16.5605 169.297 14.9241 170.047 13.5946C170.803 12.2594 171.82 11.2508 173.098 10.569C174.382 9.88152 175.82 9.53777 177.411 9.53777C178.99 9.53777 180.422 9.88152 181.706 10.569C182.99 11.2508 184.01 12.2594 184.766 13.5946C185.521 14.9241 185.899 16.5605 185.899 18.5037ZM181.024 18.5037C181.024 17.4582 180.885 16.5775 180.607 15.8616C180.334 15.14 179.928 14.5946 179.388 14.2253C178.854 13.8503 178.195 13.6628 177.411 13.6628C176.627 13.6628 175.965 13.8503 175.425 14.2253C174.891 14.5946 174.485 15.14 174.206 15.8616C173.933 16.5775 173.797 17.4582 173.797 18.5037C173.797 19.5491 173.933 20.4327 174.206 21.1543C174.485 21.8702 174.891 22.4156 175.425 22.7906C175.965 23.1599 176.627 23.3446 177.411 23.3446C178.195 23.3446 178.854 23.1599 179.388 22.7906C179.928 22.4156 180.334 21.8702 180.607 21.1543C180.885 20.4327 181.024 19.5491 181.024 18.5037ZM188.092 27.231V9.77641H192.83V23.4128H199.887V27.231H188.092ZM206.541 9.77641V27.231H201.803V9.77641H206.541ZM215.503 27.231H208.787V9.77641H215.435C217.23 9.77641 218.781 10.1258 220.088 10.8247C221.401 11.5179 222.412 12.5179 223.122 13.8247C223.838 15.1258 224.196 16.6855 224.196 18.5037C224.196 20.3219 223.841 21.8844 223.131 23.1912C222.421 24.4923 221.415 25.4923 220.114 26.1912C218.813 26.8844 217.276 27.231 215.503 27.231ZM213.526 23.2082H215.333C216.196 23.2082 216.932 23.069 217.54 22.7906C218.154 22.5122 218.619 22.0321 218.938 21.3503C219.262 20.6685 219.423 19.7196 219.423 18.5037C219.423 17.2878 219.259 16.3389 218.929 15.6571C218.605 14.9753 218.128 14.4952 217.497 14.2168C216.872 13.9383 216.105 13.7991 215.196 13.7991H213.526V23.2082Z" fill="#2E2320"/>
<path d="M86.3581 42.731H85.3567C85.2821 42.3581 85.1472 42.0136 84.9519 41.6976C84.7601 41.378 84.5186 41.0992 84.2275 40.8613C83.9363 40.6234 83.606 40.4387 83.2367 40.3073C82.8674 40.1759 82.4679 40.1102 82.0382 40.1102C81.3493 40.1102 80.7207 40.2896 80.1525 40.6482C79.5879 41.0069 79.1351 41.5342 78.7942 42.2302C78.4569 42.9227 78.2882 43.7714 78.2882 44.7764C78.2882 45.7885 78.4569 46.6408 78.7942 47.3332C79.1351 48.0257 79.5879 48.5513 80.1525 48.9099C80.7207 49.265 81.3493 49.4426 82.0382 49.4426C82.4679 49.4426 82.8674 49.3769 83.2367 49.2455C83.606 49.1141 83.9363 48.9312 84.2275 48.6969C84.5186 48.4589 84.7601 48.1802 84.9519 47.8606C85.1472 47.541 85.2821 47.1947 85.3567 46.8219H86.3581C86.2694 47.3226 86.1025 47.7896 85.8574 48.2228C85.6159 48.6525 85.307 49.0289 84.9306 49.3521C84.5577 49.6752 84.128 49.9273 83.6415 50.1084C83.155 50.2896 82.6206 50.3801 82.0382 50.3801C81.122 50.3801 80.3088 50.1511 79.5985 49.693C78.8883 49.2313 78.3308 48.5815 77.926 47.7434C77.5247 46.9053 77.324 45.9163 77.324 44.7764C77.324 43.6365 77.5247 42.6475 77.926 41.8094C78.3308 40.9714 78.8883 40.3233 79.5985 39.8652C80.3088 39.4035 81.122 39.1727 82.0382 39.1727C82.6206 39.1727 83.155 39.2633 83.6415 39.4444C84.128 39.6219 84.5577 39.8741 84.9306 40.2008C85.307 40.5239 85.6159 40.9003 85.8574 41.33C86.1025 41.7597 86.2694 42.2267 86.3581 42.731ZM88.6979 50.231V39.3219H89.694V44.3236H95.8836V39.3219H96.8797V50.231H95.8836V45.2185H89.694V50.231H88.6979ZM99.7721 50.231V39.3219H103.293C104.067 39.3219 104.714 39.4621 105.232 39.7427C105.754 40.0197 106.146 40.405 106.409 40.8986C106.676 41.3886 106.809 41.9515 106.809 42.5871C106.809 43.2228 106.676 43.7839 106.409 44.2704C106.146 44.7569 105.756 45.1369 105.237 45.4103C104.719 45.6837 104.076 45.8204 103.309 45.8204H100.31V44.9096H103.282C103.851 44.9096 104.323 44.8155 104.699 44.6273C105.079 44.4391 105.362 44.1709 105.546 43.8229C105.734 43.4749 105.829 43.063 105.829 42.5871C105.829 42.1113 105.734 41.6958 105.546 41.3407C105.358 40.982 105.074 40.705 104.694 40.5097C104.318 40.3144 103.842 40.2168 103.266 40.2168H100.768V50.231H99.7721ZM104.582 45.3091L107.267 50.231H106.116L103.458 45.3091H104.582ZM110.231 39.3219V50.231H109.235V39.3219H110.231ZM119.055 42.0491C118.994 41.4419 118.726 40.9589 118.25 40.6003C117.775 40.2416 117.176 40.0623 116.455 40.0623C115.948 40.0623 115.5 40.1493 115.113 40.3233C114.729 40.4973 114.428 40.7388 114.207 41.0477C113.991 41.3531 113.883 41.7011 113.883 42.0918C113.883 42.3794 113.945 42.6315 114.069 42.8481C114.193 43.0648 114.36 43.2512 114.57 43.4074C114.783 43.5601 115.017 43.6915 115.273 43.8016C115.532 43.9117 115.793 44.004 116.056 44.0786L117.206 44.4089C117.554 44.5047 117.902 44.6273 118.25 44.7764C118.598 44.9256 118.916 45.1138 119.204 45.341C119.495 45.5648 119.728 45.84 119.902 46.1667C120.079 46.4898 120.168 46.8787 120.168 47.3332C120.168 47.9156 120.017 48.4394 119.715 48.9046C119.413 49.3698 118.98 49.7391 118.416 50.0126C117.851 50.2824 117.174 50.4174 116.386 50.4174C115.644 50.4174 114.999 50.2949 114.453 50.0498C113.906 49.8013 113.476 49.4586 113.163 49.0218C112.851 48.585 112.675 48.079 112.636 47.5037H113.659C113.694 47.9334 113.836 48.2974 114.085 48.5957C114.334 48.894 114.657 49.1212 115.054 49.2775C115.452 49.4302 115.896 49.5065 116.386 49.5065C116.929 49.5065 117.412 49.416 117.835 49.2349C118.261 49.0502 118.595 48.7945 118.836 48.4678C119.081 48.1376 119.204 47.754 119.204 47.3172C119.204 46.9479 119.108 46.639 118.916 46.3904C118.725 46.1383 118.456 45.927 118.112 45.7565C117.771 45.5861 117.375 45.4351 116.924 45.3038L115.619 44.9202C114.763 44.6646 114.099 44.3112 113.627 43.8602C113.155 43.4092 112.918 42.8339 112.918 42.1344C112.918 41.5484 113.075 41.0335 113.387 40.5896C113.703 40.1422 114.129 39.7942 114.666 39.5456C115.205 39.2935 115.811 39.1674 116.482 39.1674C117.16 39.1674 117.76 39.2917 118.282 39.5403C118.804 39.7888 119.218 40.1315 119.524 40.5683C119.832 41.0016 119.998 41.4952 120.019 42.0491H119.055ZM121.905 40.2168V39.3219H129.815V40.2168H126.358V50.231H125.362V40.2168H121.905ZM133.053 39.3219V50.231H132.057V39.3219H133.053ZM135.97 50.231H134.926L138.894 39.3219H139.959L143.928 50.231H142.884L139.464 40.6163H139.389L135.97 50.231ZM136.721 46.0495H142.133V46.9444H136.721V46.0495ZM154.294 39.3219V50.231H153.324L146.879 41.0957H146.794V50.231H145.797V39.3219H146.762L153.228 48.4678H153.313V39.3219H154.294ZM169.957 42.731H168.955C168.881 42.3581 168.746 42.0136 168.551 41.6976C168.359 41.378 168.117 41.0992 167.826 40.8613C167.535 40.6234 167.205 40.4387 166.835 40.3073C166.466 40.1759 166.066 40.1102 165.637 40.1102C164.948 40.1102 164.319 40.2896 163.751 40.6482C163.187 41.0069 162.734 41.5342 162.393 42.2302C162.055 42.9227 161.887 43.7714 161.887 44.7764C161.887 45.7885 162.055 46.6408 162.393 47.3332C162.734 48.0257 163.187 48.5513 163.751 48.9099C164.319 49.265 164.948 49.4426 165.637 49.4426C166.066 49.4426 166.466 49.3769 166.835 49.2455C167.205 49.1141 167.535 48.9312 167.826 48.6969C168.117 48.4589 168.359 48.1802 168.551 47.8606C168.746 47.541 168.881 47.1947 168.955 46.8219H169.957C169.868 47.3226 169.701 47.7896 169.456 48.2228C169.215 48.6525 168.906 49.0289 168.529 49.3521C168.156 49.6752 167.727 49.9273 167.24 50.1084C166.754 50.2896 166.219 50.3801 165.637 50.3801C164.721 50.3801 163.907 50.1511 163.197 49.693C162.487 49.2313 161.929 48.5815 161.525 47.7434C161.123 46.9053 160.923 45.9163 160.923 44.7764C160.923 43.6365 161.123 42.6475 161.525 41.8094C161.929 40.9714 162.487 40.3233 163.197 39.8652C163.907 39.4035 164.721 39.1727 165.637 39.1727C166.219 39.1727 166.754 39.2633 167.24 39.4444C167.727 39.6219 168.156 39.8741 168.529 40.2008C168.906 40.5239 169.215 40.9003 169.456 41.33C169.701 41.7597 169.868 42.2267 169.957 42.731ZM172.297 50.231V39.3219H173.293V44.3236H179.482V39.3219H180.478V50.231H179.482V45.2185H173.293V50.231H172.297ZM190.642 39.3219H191.638V46.5449C191.638 47.2871 191.464 47.9511 191.116 48.5371C190.768 49.1195 190.283 49.5793 189.662 49.9167C189.044 50.2505 188.325 50.4174 187.504 50.4174C186.688 50.4174 185.968 50.2487 185.347 49.9114C184.725 49.574 184.241 49.1141 183.893 48.5317C183.545 47.9494 183.371 47.2871 183.371 46.5449V39.3219H184.367V46.4756C184.367 47.0545 184.496 47.5712 184.756 48.0257C185.015 48.4767 185.379 48.8318 185.848 49.091C186.32 49.3503 186.872 49.4799 187.504 49.4799C188.136 49.4799 188.689 49.3503 189.161 49.091C189.633 48.8318 189.997 48.4767 190.253 48.0257C190.512 47.5712 190.642 47.0545 190.642 46.4756V39.3219ZM194.533 50.231V39.3219H198.054C198.828 39.3219 199.474 39.4621 199.993 39.7427C200.515 40.0197 200.907 40.405 201.17 40.8986C201.436 41.3886 201.569 41.9515 201.569 42.5871C201.569 43.2228 201.436 43.7839 201.17 44.2704C200.907 44.7569 200.517 45.1369 199.998 45.4103C199.48 45.6837 198.837 45.8204 198.07 45.8204H195.071V44.9096H198.043C198.611 44.9096 199.084 44.8155 199.46 44.6273C199.84 44.4391 200.122 44.1709 200.307 43.8229C200.495 43.4749 200.589 43.063 200.589 42.5871C200.589 42.1113 200.495 41.6958 200.307 41.3407C200.119 40.982 199.835 40.705 199.455 40.5097C199.078 40.3144 198.602 40.2168 198.027 40.2168H195.529V50.231H194.533ZM199.343 45.3091L202.028 50.231H200.877L198.219 45.3091H199.343ZM212.54 42.731H211.538C211.464 42.3581 211.329 42.0136 211.134 41.6976C210.942 41.378 210.7 41.0992 210.409 40.8613C210.118 40.6234 209.788 40.4387 209.418 40.3073C209.049 40.1759 208.65 40.1102 208.22 40.1102C207.531 40.1102 206.902 40.2896 206.334 40.6482C205.77 41.0069 205.317 41.5342 204.976 42.2302C204.638 42.9227 204.47 43.7714 204.47 44.7764C204.47 45.7885 204.638 46.6408 204.976 47.3332C205.317 48.0257 205.77 48.5513 206.334 48.9099C206.902 49.265 207.531 49.4426 208.22 49.4426C208.65 49.4426 209.049 49.3769 209.418 49.2455C209.788 49.1141 210.118 48.9312 210.409 48.6969C210.7 48.4589 210.942 48.1802 211.134 47.8606C211.329 47.541 211.464 47.1947 211.538 46.8219H212.54C212.451 47.3226 212.284 47.7896 212.039 48.2228C211.798 48.6525 211.489 49.0289 211.112 49.3521C210.739 49.6752 210.31 49.9273 209.823 50.1084C209.337 50.2896 208.802 50.3801 208.22 50.3801C207.304 50.3801 206.49 50.1511 205.78 49.693C205.07 49.2313 204.512 48.5815 204.108 47.7434C203.706 46.9053 203.506 45.9163 203.506 44.7764C203.506 43.6365 203.706 42.6475 204.108 41.8094C204.512 40.9714 205.07 40.3233 205.78 39.8652C206.49 39.4035 207.304 39.1727 208.22 39.1727C208.802 39.1727 209.337 39.2633 209.823 39.4444C210.31 39.6219 210.739 39.8741 211.112 40.2008C211.489 40.5239 211.798 40.9003 212.039 41.33C212.284 41.7597 212.451 42.2267 212.54 42.731ZM214.88 50.231V39.3219H215.876V44.3236H222.065V39.3219H223.061V50.231H222.065V45.2185H215.876V50.231H214.88Z" fill="#2E2320"/>
</svg>
