<svg width="138" height="35" viewBox="0 0 138 35" fill="none" xmlns="http://www.w3.org/2000/svg">
<path d="M134.85 0.5625C136.258 0.3975 137.316 0.2734 138 0L69.0018 -6.03201e-06C69.0018 -6.03201e-06 69.0002 6.36129 69 15.4868C69 14.2739 68.9999 13.1108 68.9999 12.0044L68.9982 -6.03233e-06L3.0598e-06 -1.20643e-05C0.684003 0.273388 1.742 0.397488 3.15 0.562488C6.89 1.00049 13.097 1.72709 21.322 6.31249C26.985 9.60989 31.477 14.0229 35.93 18.3975C44.4526 26.769 52.8315 35 68.9982 35C68.9994 29.729 69 24.5708 69 19.9048C69 24.5713 69.0006 29.7285 69.0018 35C85.1686 35 93.5474 26.769 102.07 18.3975C106.523 14.0229 111.015 9.6099 116.678 6.3125C124.903 1.7271 131.11 1.0005 134.85 0.5625Z" fill="#FCFCFC"/>
</svg>
