<svg width="116" height="98" viewBox="0 0 116 98" fill="none" xmlns="http://www.w3.org/2000/svg">
<path d="M114.887 48.528C113.609 40.7518 110.551 33.5998 106.45 26.9055C100.933 17.8937 93.7919 10.8709 84.7168 6.18684C82.3167 4.9431 79.776 3.86606 77.0994 2.959C70.2051 0.618607 63.1146 0.125033 55.9111 0.00735985C47.0274 -0.139732 38.6263 1.91792 31.0678 6.18521C30.7619 6.35845 30.4543 6.53496 30.1484 6.71637C22.4688 11.2795 16.1423 16.8494 11.298 23.4587C5.99229 30.7005 2.45518 39.1909 0.845316 48.9807C-0.42425 56.7079 -0.314635 64.373 1.521 71.994C3.06869 78.4121 5.84832 84.3219 9.23492 89.9474C9.8877 91.0277 10.5797 92.09 11.2996 93.1344C12.0931 94.2931 12.9209 95.4257 13.7667 96.542C14.7631 97.8626 15.8461 98.0293 16.7362 97.3543C17.6114 96.6858 17.5934 95.7232 16.674 94.2735C16.6216 94.1967 16.5627 94.1215 16.5153 94.0447C14.9578 91.5441 13.3217 89.0877 11.8559 86.5349C11.6677 86.2064 11.4828 85.8778 11.3012 85.5461C5.12356 74.2952 3.14068 62.2517 5.19063 49.5413C6.22134 43.1493 8.18131 37.0957 11.3012 31.5226C12.2649 29.7967 13.343 28.1149 14.539 26.4839C22.0974 16.1776 31.4719 9.28721 42.5021 6.18521C46.4826 5.06731 50.6774 4.43972 55.0783 4.32532C58.4093 4.51 60.757 4.59825 63.1015 4.7715C66.1772 5.0003 69.1384 5.47263 71.9819 6.18358C81.8554 8.64818 90.3219 13.9778 97.2865 21.9387C105.424 31.2415 110.206 42.2488 111.126 54.6977C111.919 65.4795 109.877 75.704 104.398 85.1179C102.453 88.4601 100.326 91.6945 98.2975 94.9894C97.8362 95.7412 97.401 96.4832 98.3499 97.2954C99.2955 98.1077 100.159 97.9671 100.917 97.199C101.715 96.3835 102.474 95.4911 103.073 94.5203C105.835 90.0242 108.737 85.5902 111.201 80.9307C113.892 75.8364 114.915 70.2191 115.37 64.4858C115.798 59.1415 115.754 53.8004 114.89 48.5247L114.887 48.528Z" fill="#ED4B1E"/>
<path d="M76.7493 59.4304L57.9993 78.0004L39.2493 59.4304C38.0126 58.227 37.0384 56.7805 36.3882 55.182C35.7379 53.5836 35.4257 51.8678 35.4711 50.1428C35.5166 48.4177 35.9187 46.7208 36.6522 45.1588C37.3857 43.5968 38.4346 42.2036 39.733 41.0669C41.0314 39.9302 42.5511 39.0747 44.1963 38.5541C45.8416 38.0336 47.5768 37.8594 49.2927 38.0424C51.0086 38.2255 52.668 38.7618 54.1665 39.6177C55.6649 40.4736 56.9699 41.6304 57.9993 43.0154C59.0331 41.6405 60.3396 40.4937 61.837 39.647C63.3344 38.8002 64.9905 38.2716 66.7016 38.0942C68.4127 37.9169 70.142 38.0947 71.7812 38.6164C73.4204 39.1382 74.9344 39.9926 76.2282 41.1264C77.522 42.2601 78.5679 43.6487 79.3003 45.2052C80.0328 46.7617 80.4361 48.4527 80.4851 50.1722C80.534 51.8918 80.2274 53.6029 79.5846 55.1986C78.9418 56.7942 77.9766 58.24 76.7493 59.4454M57.9994 43L49.7669 51.2325C49.2982 51.7013 49.0349 52.3371 49.0349 53C49.0349 53.6629 49.2982 54.2987 49.7669 54.7675L51.1244 56.125C52.8494 57.85 55.6494 57.85 57.3744 56.125L59.8744 53.625C61.3662 52.1332 63.3896 51.2951 65.4994 51.2951C67.6092 51.2951 69.6325 52.1332 71.1244 53.625L76.7494 59.25M59.2498 66.75L64.2498 71.75M65.4998 60.5L70.4998 65.5" stroke="#2E2320" stroke-width="4" stroke-linecap="round" stroke-linejoin="round"/>
</svg>
