<svg width="116" height="98" viewBox="0 0 116 98" fill="none" xmlns="http://www.w3.org/2000/svg">
<path d="M114.887 48.528C113.609 40.7518 110.551 33.5998 106.45 26.9055C100.933 17.8937 93.7919 10.8709 84.7168 6.18684C82.3167 4.9431 79.776 3.86606 77.0994 2.959C70.2051 0.618607 63.1146 0.125033 55.9111 0.00735985C47.0274 -0.139732 38.6263 1.91792 31.0678 6.18521C30.7619 6.35845 30.4543 6.53496 30.1484 6.71637C22.4688 11.2795 16.1423 16.8494 11.298 23.4587C5.99229 30.7005 2.45518 39.1909 0.845316 48.9807C-0.42425 56.7079 -0.314635 64.373 1.521 71.994C3.06869 78.4121 5.84832 84.3219 9.23492 89.9474C9.8877 91.0277 10.5797 92.09 11.2996 93.1344C12.0931 94.2931 12.9209 95.4257 13.7667 96.542C14.7631 97.8626 15.8461 98.0293 16.7362 97.3543C17.6114 96.6858 17.5934 95.7232 16.674 94.2735C16.6216 94.1967 16.5627 94.1215 16.5153 94.0447C14.9578 91.5441 13.3217 89.0877 11.8559 86.5349C11.6677 86.2064 11.4828 85.8778 11.3012 85.5461C5.12356 74.2952 3.14068 62.2517 5.19063 49.5413C6.22134 43.1493 8.18131 37.0957 11.3012 31.5226C12.2649 29.7967 13.343 28.1149 14.539 26.4839C22.0974 16.1776 31.4719 9.28721 42.5021 6.18521C46.4826 5.06731 50.6774 4.43972 55.0783 4.32532C58.4093 4.51 60.757 4.59825 63.1015 4.7715C66.1772 5.0003 69.1384 5.47263 71.9819 6.18358C81.8554 8.64818 90.3219 13.9778 97.2865 21.9387C105.424 31.2415 110.206 42.2488 111.126 54.6977C111.919 65.4795 109.877 75.704 104.398 85.1179C102.453 88.4601 100.326 91.6945 98.2975 94.9894C97.8362 95.7412 97.401 96.4832 98.3499 97.2954C99.2955 98.1077 100.159 97.9671 100.917 97.199C101.715 96.3835 102.474 95.4911 103.073 94.5203C105.835 90.0242 108.737 85.5902 111.201 80.9307C113.892 75.8364 114.915 70.2191 115.37 64.4858C115.798 59.1415 115.754 53.8004 114.89 48.5247L114.887 48.528Z" fill="#2E2320"/>
<path d="M50.0002 54.6667C50.0002 56.5232 50.7377 58.3037 52.0504 59.6165C53.3632 60.9292 55.1436 61.6667 57.0002 61.6667C58.8567 61.6667 60.6372 60.9292 61.9499 59.6165C63.2627 58.3037 64.0002 56.5232 64.0002 54.6667C64.0002 52.8102 63.2627 51.0297 61.9499 49.717C60.6372 48.4042 58.8567 47.6667 57.0002 47.6667C55.1436 47.6667 53.3632 48.4042 52.0504 49.717C50.7377 51.0297 50.0002 52.8102 50.0002 54.6667Z" stroke="#EB3300" stroke-width="4" stroke-linecap="round" stroke-linejoin="round"/>
<path d="M70.1998 67.8663L60.2995 77.7666C59.4245 78.6407 58.2382 79.1318 57.0013 79.1318C55.7645 79.1318 54.5782 78.6407 53.7032 77.7666L43.8005 67.8663C41.19 65.2556 39.4123 61.9296 38.6921 58.3086C37.9719 54.6877 38.3416 50.9345 39.7545 47.5236C41.1674 44.1128 43.5599 41.1975 46.6296 39.1464C49.6993 37.0954 53.3083 36.0006 57.0002 36.0006C60.692 36.0006 64.301 37.0954 67.3707 39.1464C70.4404 41.1975 72.833 44.1128 74.2458 47.5236C75.6587 50.9345 76.0284 54.6877 75.3082 58.3086C74.5881 61.9296 72.8103 65.2556 70.1998 67.8663Z" stroke="#EB3300" stroke-width="4" stroke-linecap="round" stroke-linejoin="round"/>
</svg>
