<svg width="116" height="98" viewBox="0 0 116 98" fill="none" xmlns="http://www.w3.org/2000/svg">
<path d="M114.887 48.528C113.609 40.7518 110.551 33.5998 106.45 26.9055C100.933 17.8937 93.7919 10.8709 84.7168 6.18684C82.3167 4.9431 79.776 3.86606 77.0994 2.959C70.2051 0.618607 63.1146 0.125033 55.9111 0.00735985C47.0274 -0.139732 38.6263 1.91792 31.0678 6.18521C30.7619 6.35845 30.4543 6.53496 30.1484 6.71637C22.4688 11.2795 16.1423 16.8494 11.298 23.4587C5.99229 30.7005 2.45518 39.1909 0.845316 48.9807C-0.42425 56.7079 -0.314635 64.373 1.521 71.994C3.06869 78.4121 5.84832 84.3219 9.23492 89.9474C9.8877 91.0277 10.5797 92.09 11.2996 93.1344C12.0931 94.2931 12.9209 95.4257 13.7667 96.542C14.7631 97.8626 15.8461 98.0293 16.7362 97.3543C17.6114 96.6858 17.5934 95.7232 16.674 94.2735C16.6216 94.1967 16.5627 94.1215 16.5153 94.0447C14.9578 91.5441 13.3217 89.0877 11.8559 86.5349C11.6677 86.2064 11.4828 85.8778 11.3012 85.5461C5.12356 74.2952 3.14068 62.2517 5.19063 49.5413C6.22134 43.1493 8.18131 37.0957 11.3012 31.5226C12.2649 29.7967 13.343 28.1149 14.539 26.4839C22.0974 16.1776 31.4719 9.28721 42.5021 6.18521C46.4826 5.06731 50.6774 4.43972 55.0783 4.32532C58.4093 4.51 60.757 4.59825 63.1015 4.7715C66.1772 5.0003 69.1384 5.47263 71.9819 6.18358C81.8554 8.64818 90.3219 13.9778 97.2865 21.9387C105.424 31.2415 110.206 42.2488 111.126 54.6977C111.919 65.4795 109.877 75.704 104.398 85.1179C102.453 88.4601 100.326 91.6945 98.2975 94.9894C97.8362 95.7412 97.401 96.4832 98.3499 97.2954C99.2955 98.1077 100.159 97.9671 100.917 97.199C101.715 96.3835 102.474 95.4911 103.073 94.5203C105.835 90.0242 108.737 85.5902 111.201 80.9307C113.892 75.8364 114.915 70.2191 115.37 64.4858C115.798 59.1415 115.754 53.8004 114.89 48.5247L114.887 48.528Z" fill="#2E2320"/>
<path d="M38.0879 46C38.0879 43.3478 39.1415 40.8043 41.0168 38.9289C42.8922 37.0536 45.4357 36 48.0879 36H68.0879C70.7401 36 73.2836 37.0536 75.159 38.9289C77.0343 40.8043 78.0879 43.3478 78.0879 46V66C78.0879 68.6522 77.0343 71.1957 75.159 73.0711C73.2836 74.9464 70.7401 76 68.0879 76H48.0879C45.4357 76 42.8922 74.9464 41.0168 73.0711C39.1415 71.1957 38.0879 68.6522 38.0879 66V46Z" stroke="#EB3300" stroke-width="4" stroke-linecap="round" stroke-linejoin="round"/>
<path d="M54.7546 51V61L63.0879 56L54.7546 51Z" stroke="#EB3300" stroke-width="4" stroke-linecap="round" stroke-linejoin="round"/>
</svg>
